<svg xmlns="http://www.w3.org/2000/svg" version="1.1" xmlns:xlink="http://www.w3.org/1999/xlink" xmlns:svgjs="http://svgjs.com/svgjs" width="1920" height="15000" preserveAspectRatio="none" viewBox="0 0 1920 15000"><g mask="url(&quot;#SvgjsMask1076&quot;)" fill="none"><rect width="1920" height="15000" x="0" y="0" fill="url(#SvgjsLinearGradient1077)"></rect><path d="M587.85 10674.26L659 10674.26L659 10736.52L587.85 10736.52z" fill="rgba(158, 0, 86, 1)"></path><path d="M71.81 9554.46a109.67 109.67 0 1 0-77.69-205.12z" stroke="rgba(73, 14, 147, 1)"></path><path d="M1125.75 11074 a57.98 57.98 0 1 0 115.96 0 a57.98 57.98 0 1 0 -115.96 0z" stroke="rgba(158, 0, 86, 1)"></path><path d="M309.42 11075.54a137.15 137.15 0 1 0 154.41-226.71z" stroke="rgba(0, 67, 96, 1)"></path><path d="M856.81 14500.59 a152.63 152.63 0 1 0 305.26 0 a152.63 152.63 0 1 0 -305.26 0z" fill="rgba(73, 14, 147, 1)"></path><path d="M48.99 7519.02L179.62 7519.02L179.62 7670.66L48.99 7670.66z" stroke="rgba(73, 14, 147, 1)"></path><path d="M1544.03 4319.87L1706.01 4319.87L1706.01 4481.85L1544.03 4481.85z" stroke="rgba(73, 14, 147, 1)"></path><path d="M615.41 8553.89L737.01 8553.89L737.01 8651.17L615.41 8651.17z" fill="rgba(158, 0, 86, 1)"></path><path d="M1622.49 234.54a98.21 98.21 0 1 0-133.75 143.85z" stroke="rgba(158, 0, 86, 1)"></path><path d="M1607.28 7175.96L1707.51 7175.96L1707.51 7276.19L1607.28 7276.19z" fill="rgba(158, 0, 86, 1)"></path><path d="M1794.71 453.35a81.06 81.06 0 1 0 132.44-93.5z" stroke="rgba(158, 0, 86, 1)"></path><path d="M1539.14 417.21L1686.98 417.21L1686.98 565.05L1539.14 565.05z" fill="rgba(158, 0, 86, 1)"></path><path d="M534.2 4979.09L705.07 4979.09L705.07 5055.94L534.2 5055.94z" stroke="rgba(0, 67, 96, 1)"></path><path d="M1427.74 7121.12L1604.6 7121.12L1604.6 7297.98L1427.74 7297.98z" stroke="rgba(73, 14, 147, 1)"></path><path d="M579.29 1815.45a41.17 41.17 0 1 0-71.12-41.49z" stroke="rgba(73, 14, 147, 1)"></path><path d="M1855.36 11184.83L2027.6 11184.83L2027.6 11329.27L1855.36 11329.27z" fill="rgba(73, 14, 147, 1)"></path><path d="M838.85 5304.65a37.41 37.41 0 1 0 43.56 60.83z" fill="rgba(0, 67, 96, 1)"></path><path d="M1410.34 8448.62a161.93 161.93 0 1 0 246.1 210.52z" fill="rgba(73, 14, 147, 1)"></path><path d="M184.08 5544.18L276.32 5544.18L276.32 5636.42L184.08 5636.42z" fill="rgba(73, 14, 147, 1)"></path><path d="M1378.95 10919.84 a117.27 117.27 0 1 0 234.54 0 a117.27 117.27 0 1 0 -234.54 0z" fill="rgba(73, 14, 147, 1)"></path><path d="M709.64 4100.97L831.2 4100.97L831.2 4280.38L709.64 4280.38z" stroke="rgba(73, 14, 147, 1)"></path><path d="M1260.99 3053.65L1423.53 3053.65L1423.53 3244.7L1260.99 3244.7z" stroke="rgba(0, 67, 96, 1)"></path><path d="M405.75 4746.85 a168.15 168.15 0 1 0 336.3 0 a168.15 168.15 0 1 0 -336.3 0z" fill="rgba(158, 0, 86, 1)"></path><path d="M355.42 9463.34L526.78 9463.34L526.78 9634.7L355.42 9634.7z" fill="rgba(0, 67, 96, 1)"></path><path d="M1392.65 3845.99 a149.41 149.41 0 1 0 298.82 0 a149.41 149.41 0 1 0 -298.82 0z" stroke="rgba(158, 0, 86, 1)"></path><path d="M1127.13 12203.94a147.01 147.01 0 1 0 290.52 45.28z" stroke="rgba(0, 67, 96, 1)"></path><path d="M1322.83 8951.66a165.16 165.16 0 1 0 14.76-329.99z" fill="rgba(158, 0, 86, 1)"></path><path d="M1813.47 1940.65a64.08 64.08 0 1 0-117.93 50.17z" stroke="rgba(158, 0, 86, 1)"></path><path d="M211.56 6786.47 a144.49 144.49 0 1 0 288.98 0 a144.49 144.49 0 1 0 -288.98 0z" stroke="rgba(0, 67, 96, 1)"></path><path d="M454.99 3414.92 a127.76 127.76 0 1 0 255.52 0 a127.76 127.76 0 1 0 -255.52 0z" stroke="rgba(0, 67, 96, 1)"></path><path d="M1397.56 12455.13L1519.95 12455.13L1519.95 12577.52L1397.56 12577.52z" stroke="rgba(0, 67, 96, 1)"></path><path d="M1466.42 6470.92L1641.28 6470.92L1641.28 6494.94L1466.42 6494.94z" fill="rgba(73, 14, 147, 1)"></path><path d="M512.47 13955.63a190.36 190.36 0 1 0 378.96 36.64z" stroke="rgba(158, 0, 86, 1)"></path><path d="M438.22 14090.82a173.53 173.53 0 1 0-130.37 321.64z" fill="rgba(0, 67, 96, 1)"></path><path d="M1540.52 11491.52L1561.73 11491.52L1561.73 11579.93L1540.52 11579.93z" stroke="rgba(73, 14, 147, 1)"></path><path d="M638.47 1131.51L799.5 1131.51L799.5 1293.47L638.47 1293.47z" stroke="rgba(158, 0, 86, 1)"></path><path d="M497.7 10780.83L616.01 10780.83L616.01 10899.14L497.7 10899.14z" stroke="rgba(0, 67, 96, 1)"></path><path d="M1258.88 4487.35 a95.43 95.43 0 1 0 190.86 0 a95.43 95.43 0 1 0 -190.86 0z" fill="rgba(0, 67, 96, 1)"></path><path d="M1638.44 13695.97 a117.22 117.22 0 1 0 234.44 0 a117.22 117.22 0 1 0 -234.44 0z" fill="rgba(158, 0, 86, 1)"></path><path d="M136.84 7638.4L203.33 7638.4L203.33 7704.89L136.84 7704.89z" stroke="rgba(0, 67, 96, 1)"></path><path d="M1168.52 14250.12a163.98 163.98 0 1 0 75.24 319.22z" fill="rgba(158, 0, 86, 1)"></path><path d="M569.38 11697.84L583.24 11697.84L583.24 11768.35L569.38 11768.35z" fill="rgba(0, 67, 96, 1)"></path><path d="M1879.79 9631.81L1916.6 9631.81L1916.6 9668.62L1879.79 9668.62z" fill="rgba(73, 14, 147, 1)"></path><path d="M1095.89 1396 a76.87 76.87 0 1 0 153.74 0 a76.87 76.87 0 1 0 -153.74 0z" fill="rgba(158, 0, 86, 1)"></path><path d="M1169.82 4677.51L1339.5 4677.51L1339.5 4696.25L1169.82 4696.25z" stroke="rgba(158, 0, 86, 1)"></path><path d="M1897.88 9458.83L2010.3 9458.83L2010.3 9559.82L1897.88 9559.82z" fill="rgba(0, 67, 96, 1)"></path><path d="M1463.8 12699.87a7.31 7.31 0 1 0-11.36 9.2z" fill="rgba(0, 67, 96, 1)"></path><path d="M1761.04 10724.98L1799.11 10724.98L1799.11 10763.05L1761.04 10763.05z" stroke="rgba(73, 14, 147, 1)"></path><path d="M925.64 8708.59 a153.05 153.05 0 1 0 306.1 0 a153.05 153.05 0 1 0 -306.1 0z" fill="rgba(0, 67, 96, 1)"></path><path d="M704.06 13888.95a18.77 18.77 0 1 0 33.78-16.38z" fill="rgba(73, 14, 147, 1)"></path><path d="M287.12 169.35a48.1 48.1 0 1 0-57.73-76.95z" stroke="rgba(158, 0, 86, 1)"></path><path d="M950.09 13806.48a26.6 26.6 0 1 0 41.44-33.36z" stroke="rgba(158, 0, 86, 1)"></path><path d="M1285.4 4665.74L1395.78 4665.74L1395.78 4776.12L1285.4 4776.12z" fill="rgba(0, 67, 96, 1)"></path><path d="M1855.06 7762.57a40.01 40.01 0 1 0-45.97-65.5z" stroke="rgba(158, 0, 86, 1)"></path><path d="M749.07 14424.84a45.74 45.74 0 1 0-88.89-21.63z" stroke="rgba(158, 0, 86, 1)"></path><path d="M163.04 4338.63L270.44 4338.63L270.44 4438.43L163.04 4438.43z" stroke="rgba(73, 14, 147, 1)"></path><path d="M1839.29 2663.8L1858.7 2663.8L1858.7 2745.95L1839.29 2745.95z" fill="rgba(158, 0, 86, 1)"></path><path d="M26.07 8907.89L193.97 8907.89L193.97 9075.79L26.07 9075.79z" fill="rgba(73, 14, 147, 1)"></path><path d="M754.77 339.09 a50 50 0 1 0 100 0 a50 50 0 1 0 -100 0z" fill="rgba(158, 0, 86, 1)"></path><path d="M200.02 7524.72L255.85 7524.72L255.85 7602.31L200.02 7602.31z" fill="rgba(158, 0, 86, 1)"></path><path d="M191.42 458.09L227.22 458.09L227.22 493.89L191.42 493.89z" fill="rgba(0, 67, 96, 1)"></path><path d="M1202.61 5331.57a8.76 8.76 0 1 0 12.1 12.67z" fill="rgba(0, 67, 96, 1)"></path><path d="M1576.83 5948.32a95.49 95.49 0 1 0-52.31 183.67z" fill="rgba(0, 67, 96, 1)"></path><path d="M982.11 7117.07L1077.61 7117.07L1077.61 7212.57L982.11 7212.57z" fill="rgba(158, 0, 86, 1)"></path><path d="M1503.46 2124.87a155.67 155.67 0 1 0-61.12 305.28z" fill="rgba(158, 0, 86, 1)"></path><path d="M561.13 537.16L631.34 537.16L631.34 607.37L561.13 607.37z" fill="rgba(0, 67, 96, 1)"></path><path d="M402.36 6365.75 a90.47 90.47 0 1 0 180.94 0 a90.47 90.47 0 1 0 -180.94 0z" stroke="rgba(73, 14, 147, 1)"></path><path d="M1232.37 8641.9L1273.53 8641.9L1273.53 8683.06L1232.37 8683.06z" fill="rgba(158, 0, 86, 1)"></path><path d="M527.66 6590.01L620.04 6590.01L620.04 6682.39L527.66 6682.39z" stroke="rgba(73, 14, 147, 1)"></path><path d="M1182.94 13636.66a117.71 117.71 0 1 0 59.99-227.65z" stroke="rgba(73, 14, 147, 1)"></path><path d="M1084.28 7096.62 a11.37 11.37 0 1 0 22.74 0 a11.37 11.37 0 1 0 -22.74 0z" stroke="rgba(0, 67, 96, 1)"></path><path d="M691.79 6973.51L815.05 6973.51L815.05 7147.43L691.79 7147.43z" stroke="rgba(73, 14, 147, 1)"></path><path d="M1794.67 9461.89L1901.59 9461.89L1901.59 9614.27L1794.67 9614.27z" fill="rgba(158, 0, 86, 1)"></path><path d="M8.28 8929.96 a53.9 53.9 0 1 0 107.8 0 a53.9 53.9 0 1 0 -107.8 0z" fill="rgba(0, 67, 96, 1)"></path><path d="M1008.84 12927.35L1152.91 12927.35L1152.91 13071.42L1008.84 13071.42z" stroke="rgba(158, 0, 86, 1)"></path><path d="M925.7 11236.49a46.87 46.87 0 1 0-25.07 90.33z" fill="rgba(73, 14, 147, 1)"></path><path d="M1338.12 2541.91 a91.41 91.41 0 1 0 182.82 0 a91.41 91.41 0 1 0 -182.82 0z" fill="rgba(158, 0, 86, 1)"></path><path d="M306.42 13895.47a80.55 80.55 0 1 0 157.88-32.02z" fill="rgba(0, 67, 96, 1)"></path><path d="M781.47 7640.6 a93.16 93.16 0 1 0 186.32 0 a93.16 93.16 0 1 0 -186.32 0z" fill="rgba(158, 0, 86, 1)"></path><path d="M723.22 3954.37 a111.81 111.81 0 1 0 223.62 0 a111.81 111.81 0 1 0 -223.62 0z" fill="rgba(73, 14, 147, 1)"></path><path d="M1317.9 1770.72L1364.64 1770.72L1364.64 1920.34L1317.9 1920.34z" stroke="rgba(73, 14, 147, 1)"></path><path d="M1092.73 752.58 a6.79 6.79 0 1 0 13.58 0 a6.79 6.79 0 1 0 -13.58 0z" stroke="rgba(158, 0, 86, 1)"></path><path d="M65.67 2913.73L128.89 2913.73L128.89 2947.92L65.67 2947.92z" fill="rgba(73, 14, 147, 1)"></path><path d="M1372.19 5686.66 a56.76 56.76 0 1 0 113.52 0 a56.76 56.76 0 1 0 -113.52 0z" fill="rgba(73, 14, 147, 1)"></path><path d="M1530.63 10338.92L1579.99 10338.92L1579.99 10388.28L1530.63 10388.28z" fill="rgba(158, 0, 86, 1)"></path><path d="M600.12 11823.73 a66.61 66.61 0 1 0 133.22 0 a66.61 66.61 0 1 0 -133.22 0z" stroke="rgba(0, 67, 96, 1)"></path><path d="M1802.14 14018.69 a11.71 11.71 0 1 0 23.42 0 a11.71 11.71 0 1 0 -23.42 0z" stroke="rgba(0, 67, 96, 1)"></path><path d="M191.8 14084.13a79.62 79.62 0 1 0 75.33 140.3z" stroke="rgba(158, 0, 86, 1)"></path><path d="M789.27 11776.92a173.17 173.17 0 1 0-310.58-153.26z" fill="rgba(73, 14, 147, 1)"></path><path d="M650.42 7861.68a109 109 0 1 0 157.61-150.6z" stroke="rgba(73, 14, 147, 1)"></path><path d="M1624.71 2064.65L1710.85 2064.65L1710.85 2150.79L1624.71 2150.79z" fill="rgba(0, 67, 96, 1)"></path><path d="M1800.35 5257.86 a16.05 16.05 0 1 0 32.1 0 a16.05 16.05 0 1 0 -32.1 0z" fill="rgba(158, 0, 86, 1)"></path><path d="M287.56 13021.91 a31.77 31.77 0 1 0 63.54 0 a31.77 31.77 0 1 0 -63.54 0z" stroke="rgba(158, 0, 86, 1)"></path><path d="M497.48 10258.82 a116.77 116.77 0 1 0 233.54 0 a116.77 116.77 0 1 0 -233.54 0z" fill="rgba(158, 0, 86, 1)"></path><path d="M356.29 2619.14L520.77 2619.14L520.77 2783.62L356.29 2783.62z" stroke="rgba(73, 14, 147, 1)"></path><path d="M1388.62 6769.22L1461.42 6769.22L1461.42 6842.02L1388.62 6842.02z" fill="rgba(73, 14, 147, 1)"></path><path d="M1124.2 577.95 a143.89 143.89 0 1 0 287.78 0 a143.89 143.89 0 1 0 -287.78 0z" fill="rgba(0, 67, 96, 1)"></path><path d="M884.48 10252.9 a93.26 93.26 0 1 0 186.52 0 a93.26 93.26 0 1 0 -186.52 0z" stroke="rgba(73, 14, 147, 1)"></path></g><defs><mask id="SvgjsMask1076"><rect width="1920" height="15000" fill="#ffffff"></rect></mask><linearGradient x1="270.31%" y1="21.8%" x2="-170.31%" y2="78.2%" gradientUnits="userSpaceOnUse" id="SvgjsLinearGradient1077"><stop stop-color="rgba(73, 14, 147, 1)" offset="0"></stop><stop stop-color="rgba(158, 0, 86, 1)" offset="1"></stop></linearGradient></defs></svg>