<svg xmlns="http://www.w3.org/2000/svg" version="1.1" xmlns:xlink="http://www.w3.org/1999/xlink" xmlns:svgjs="http://svgjs.com/svgjs" width="1903" height="200" preserveAspectRatio="none" viewBox="0 0 1903 200"><g mask="url(&quot;#SvgjsMask1158&quot;)" fill="none"><rect width="1903" height="200" x="0" y="0" fill="#0e2a47"></rect><path d="M-69.2 339.04L-69.2 339.04" stroke="#132e65" stroke-width="1.5"></path><path d="M-69.2 339.04L47.13 340.53" stroke="#132e65" stroke-width="1.5"></path><path d="M-69.2 339.04L95.95 207.35" stroke="#132e65" stroke-width="1.5"></path><path d="M-69.2 339.04L198.85 228.44" stroke="#132e65" stroke-width="1.5"></path><path d="M-69.2 339.04L255.81 369.73" stroke="#132e65" stroke-width="1.5"></path><path d="M-69.2 339.04L351.78 206.95" stroke="#132e65" stroke-width="1.5"></path><path d="M-69.2 339.04L383.95 340.22" stroke="#132e65" stroke-width="1.5"></path><path d="M95.95 207.35L95.95 207.35" stroke="#132e65" stroke-width="1.5"></path><path d="M95.95 207.35L198.85 228.44" stroke="#132e65" stroke-width="1.5"></path><path d="M95.95 207.35L47.13 340.53" stroke="#132e65" stroke-width="1.5"></path><path d="M95.95 207.35L255.81 369.73" stroke="#132e65" stroke-width="1.5"></path><path d="M95.95 207.35L351.78 206.95" stroke="#132e65" stroke-width="1.5"></path><path d="M47.13 340.53L47.13 340.53" stroke="#132e65" stroke-width="1.5"></path><path d="M47.13 340.53L198.85 228.44" stroke="#132e65" stroke-width="1.5"></path><path d="M47.13 340.53L255.81 369.73" stroke="#132e65" stroke-width="1.5"></path><path d="M47.13 340.53L351.78 206.95" stroke="#132e65" stroke-width="1.5"></path><path d="M47.13 340.53L383.95 340.22" stroke="#132e65" stroke-width="1.5"></path><path d="M198.85 228.44L198.85 228.44" stroke="#132e65" stroke-width="1.5"></path><path d="M198.85 228.44L255.81 369.73" stroke="#132e65" stroke-width="1.5"></path><path d="M198.85 228.44L351.78 206.95" stroke="#132e65" stroke-width="1.5"></path><path d="M198.85 228.44L383.95 340.22" stroke="#132e65" stroke-width="1.5"></path><path d="M255.81 369.73L255.81 369.73" stroke="#132e65" stroke-width="1.5"></path><path d="M255.81 369.73L383.95 340.22" stroke="#132e65" stroke-width="1.5"></path><path d="M255.81 369.73L351.78 206.95" stroke="#132e65" stroke-width="1.5"></path><path d="M255.81 369.73L518.93 356.81" stroke="#132e65" stroke-width="1.5"></path><path d="M351.78 206.95L351.78 206.95" stroke="#132e65" stroke-width="1.5"></path><path d="M351.78 206.95L383.95 340.22" stroke="#132e65" stroke-width="1.5"></path><path d="M351.78 206.95L545.79 232.5" stroke="#132e65" stroke-width="1.5"></path><path d="M383.95 340.22L383.95 340.22" stroke="#132e65" stroke-width="1.5"></path><path d="M383.95 340.22L518.93 356.81" stroke="#132e65" stroke-width="1.5"></path><path d="M383.95 340.22L545.79 232.5" stroke="#132e65" stroke-width="1.5"></path><path d="M383.95 340.22L95.95 207.35" stroke="#132e65" stroke-width="1.5"></path><path d="M545.79 232.5L545.79 232.5" stroke="#132e65" stroke-width="1.5"></path><path d="M545.79 232.5L518.93 356.81" stroke="#132e65" stroke-width="1.5"></path><path d="M545.79 232.5L682.51 200.57" stroke="#132e65" stroke-width="1.5"></path><path d="M545.79 232.5L676.61 102.27" stroke="#132e65" stroke-width="1.5"></path><path d="M518.93 356.81L518.93 356.81" stroke="#132e65" stroke-width="1.5"></path><path d="M518.93 356.81L710.17 344.95" stroke="#132e65" stroke-width="1.5"></path><path d="M518.93 356.81L351.78 206.95" stroke="#132e65" stroke-width="1.5"></path><path d="M518.93 356.81L682.51 200.57" stroke="#132e65" stroke-width="1.5"></path><path d="M676.61 102.27L676.61 102.27" stroke="#132e65" stroke-width="1.5"></path><path d="M676.61 102.27L682.51 200.57" stroke="#132e65" stroke-width="1.5"></path><path d="M676.61 102.27L808.05 245.45" stroke="#132e65" stroke-width="1.5"></path><path d="M676.61 102.27L710.17 344.95" stroke="#132e65" stroke-width="1.5"></path><path d="M676.61 102.27L518.93 356.81" stroke="#132e65" stroke-width="1.5"></path><path d="M682.51 200.57L682.51 200.57" stroke="#132e65" stroke-width="1.5"></path><path d="M682.51 200.57L808.05 245.45" stroke="#132e65" stroke-width="1.5"></path><path d="M710.17 344.95L710.17 344.95" stroke="#132e65" stroke-width="1.5"></path><path d="M710.17 344.95L789.62 389.8" stroke="#132e65" stroke-width="1.5"></path><path d="M710.17 344.95L808.05 245.45" stroke="#132e65" stroke-width="1.5"></path><path d="M710.17 344.95L682.51 200.57" stroke="#132e65" stroke-width="1.5"></path><path d="M710.17 344.95L545.79 232.5" stroke="#132e65" stroke-width="1.5"></path><path d="M808.05 245.45L808.05 245.45" stroke="#132e65" stroke-width="1.5"></path><path d="M789.62 389.8L789.62 389.8" stroke="#132e65" stroke-width="1.5"></path><path d="M789.62 389.8L808.05 245.45" stroke="#132e65" stroke-width="1.5"></path><path d="M990.41 71.72L990.41 71.72" stroke="#132e65" stroke-width="1.5"></path><path d="M990.41 71.72L1087.78 57.55" stroke="#132e65" stroke-width="1.5"></path><path d="M1153.04 -95.91L1153.04 -95.91" stroke="#132e65" stroke-width="1.5"></path><path d="M1153.04 -95.91L1291.18 -48.14" stroke="#132e65" stroke-width="1.5"></path><path d="M1153.04 -95.91L1087.78 57.55" stroke="#132e65" stroke-width="1.5"></path><path d="M1153.04 -95.91L1300.93 82.49" stroke="#132e65" stroke-width="1.5"></path><path d="M1087.78 57.55L1087.78 57.55" stroke="#132e65" stroke-width="1.5"></path><path d="M1087.78 57.55L1153.05 237.73" stroke="#132e65" stroke-width="1.5"></path><path d="M1087.78 57.55L1300.93 82.49" stroke="#132e65" stroke-width="1.5"></path><path d="M1087.78 57.55L1291.18 -48.14" stroke="#132e65" stroke-width="1.5"></path><path d="M1153.05 237.73L1153.05 237.73" stroke="#132e65" stroke-width="1.5"></path><path d="M1153.05 237.73L1304 221.98" stroke="#132e65" stroke-width="1.5"></path><path d="M1153.05 237.73L1102.02 389.98" stroke="#132e65" stroke-width="1.5"></path><path d="M1102.02 389.98L1102.02 389.98" stroke="#132e65" stroke-width="1.5"></path><path d="M1102.02 389.98L1291.32 392.24" stroke="#132e65" stroke-width="1.5"></path><path d="M1102.02 389.98L1304 221.98" stroke="#132e65" stroke-width="1.5"></path><path d="M1291.18 -48.14L1291.18 -48.14" stroke="#132e65" stroke-width="1.5"></path><path d="M1291.18 -48.14L1300.93 82.49" stroke="#132e65" stroke-width="1.5"></path><path d="M1291.18 -48.14L1433.55 -46.75" stroke="#132e65" stroke-width="1.5"></path><path d="M1300.93 82.49L1300.93 82.49" stroke="#132e65" stroke-width="1.5"></path><path d="M1300.93 82.49L1425.9 95.28" stroke="#132e65" stroke-width="1.5"></path><path d="M1300.93 82.49L1304 221.98" stroke="#132e65" stroke-width="1.5"></path><path d="M1300.93 82.49L1433.55 -46.75" stroke="#132e65" stroke-width="1.5"></path><path d="M1300.93 82.49L1153.05 237.73" stroke="#132e65" stroke-width="1.5"></path><path d="M1304 221.98L1304 221.98" stroke="#132e65" stroke-width="1.5"></path><path d="M1304 221.98L1388.07 367.51" stroke="#132e65" stroke-width="1.5"></path><path d="M1291.32 392.24L1291.32 392.24" stroke="#132e65" stroke-width="1.5"></path><path d="M1291.32 392.24L1388.07 367.51" stroke="#132e65" stroke-width="1.5"></path><path d="M1291.32 392.24L1304 221.98" stroke="#132e65" stroke-width="1.5"></path><path d="M1433.55 -46.75L1433.55 -46.75" stroke="#132e65" stroke-width="1.5"></path><path d="M1433.55 -46.75L1425.9 95.28" stroke="#132e65" stroke-width="1.5"></path><path d="M1433.55 -46.75L1595.38 -39.36" stroke="#132e65" stroke-width="1.5"></path><path d="M1425.9 95.28L1425.9 95.28" stroke="#132e65" stroke-width="1.5"></path><path d="M1425.9 95.28L1558.01 93.05" stroke="#132e65" stroke-width="1.5"></path><path d="M1425.9 95.28L1548.36 203.49" stroke="#132e65" stroke-width="1.5"></path><path d="M1425.9 95.28L1304 221.98" stroke="#132e65" stroke-width="1.5"></path><path d="M1388.07 367.51L1388.07 367.51" stroke="#132e65" stroke-width="1.5"></path><path d="M1388.07 367.51L1589.54 369.12" stroke="#132e65" stroke-width="1.5"></path><path d="M1388.07 367.51L1548.36 203.49" stroke="#132e65" stroke-width="1.5"></path><path d="M1595.38 -39.36L1595.38 -39.36" stroke="#132e65" stroke-width="1.5"></path><path d="M1595.38 -39.36L1558.01 93.05" stroke="#132e65" stroke-width="1.5"></path><path d="M1595.38 -39.36L1739.59 -63.52" stroke="#132e65" stroke-width="1.5"></path><path d="M1558.01 93.05L1558.01 93.05" stroke="#132e65" stroke-width="1.5"></path><path d="M1558.01 93.05L1548.36 203.49" stroke="#132e65" stroke-width="1.5"></path><path d="M1548.36 203.49L1548.36 203.49" stroke="#132e65" stroke-width="1.5"></path><path d="M1548.36 203.49L1704.43 246.77" stroke="#132e65" stroke-width="1.5"></path><path d="M1548.36 203.49L1589.54 369.12" stroke="#132e65" stroke-width="1.5"></path><path d="M1548.36 203.49L1718.05 71.49" stroke="#132e65" stroke-width="1.5"></path><path d="M1589.54 369.12L1589.54 369.12" stroke="#132e65" stroke-width="1.5"></path><path d="M1589.54 369.12L1752.72 382.57" stroke="#132e65" stroke-width="1.5"></path><path d="M1589.54 369.12L1704.43 246.77" stroke="#132e65" stroke-width="1.5"></path><path d="M1589.54 369.12L1854.26 391.67" stroke="#132e65" stroke-width="1.5"></path><path d="M1589.54 369.12L1558.01 93.05" stroke="#132e65" stroke-width="1.5"></path><path d="M1739.59 -63.52L1739.59 -63.52" stroke="#132e65" stroke-width="1.5"></path><path d="M1739.59 -63.52L1718.05 71.49" stroke="#132e65" stroke-width="1.5"></path><path d="M1739.59 -63.52L1884.76 -49.74" stroke="#132e65" stroke-width="1.5"></path><path d="M1739.59 -63.52L1905.67 62.67" stroke="#132e65" stroke-width="1.5"></path><path d="M1739.59 -63.52L1558.01 93.05" stroke="#132e65" stroke-width="1.5"></path><path d="M1718.05 71.49L1718.05 71.49" stroke="#132e65" stroke-width="1.5"></path><path d="M1718.05 71.49L1558.01 93.05" stroke="#132e65" stroke-width="1.5"></path><path d="M1718.05 71.49L1595.38 -39.36" stroke="#132e65" stroke-width="1.5"></path><path d="M1718.05 71.49L1842.26 193.99" stroke="#132e65" stroke-width="1.5"></path><path d="M1718.05 71.49L1704.43 246.77" stroke="#132e65" stroke-width="1.5"></path><path d="M1718.05 71.49L1905.67 62.67" stroke="#132e65" stroke-width="1.5"></path><path d="M1704.43 246.77L1704.43 246.77" stroke="#132e65" stroke-width="1.5"></path><path d="M1704.43 246.77L1752.72 382.57" stroke="#132e65" stroke-width="1.5"></path><path d="M1704.43 246.77L1842.26 193.99" stroke="#132e65" stroke-width="1.5"></path><path d="M1704.43 246.77L1854.26 391.67" stroke="#132e65" stroke-width="1.5"></path><path d="M1752.72 382.57L1752.72 382.57" stroke="#132e65" stroke-width="1.5"></path><path d="M1752.72 382.57L1854.26 391.67" stroke="#132e65" stroke-width="1.5"></path><path d="M1884.76 -49.74L1884.76 -49.74" stroke="#132e65" stroke-width="1.5"></path><path d="M1884.76 -49.74L1991.94 -88.28" stroke="#132e65" stroke-width="1.5"></path><path d="M1884.76 -49.74L1905.67 62.67" stroke="#132e65" stroke-width="1.5"></path><path d="M1905.67 62.67L1905.67 62.67" stroke="#132e65" stroke-width="1.5"></path><path d="M1905.67 62.67L2006.44 88.83" stroke="#132e65" stroke-width="1.5"></path><path d="M1842.26 193.99L1842.26 193.99" stroke="#132e65" stroke-width="1.5"></path><path d="M1842.26 193.99L1905.67 62.67" stroke="#132e65" stroke-width="1.5"></path><path d="M1854.26 391.67L1854.26 391.67" stroke="#132e65" stroke-width="1.5"></path><path d="M1854.26 391.67L2019.34 396.07" stroke="#132e65" stroke-width="1.5"></path><path d="M1991.94 -88.28L1991.94 -88.28" stroke="#132e65" stroke-width="1.5"></path><path d="M1991.94 -88.28L1905.67 62.67" stroke="#132e65" stroke-width="1.5"></path><path d="M1991.94 -88.28L2006.44 88.83" stroke="#132e65" stroke-width="1.5"></path><path d="M1991.94 -88.28L1739.59 -63.52" stroke="#132e65" stroke-width="1.5"></path><path d="M1991.94 -88.28L2024.84 188.85" stroke="#132e65" stroke-width="1.5"></path><path d="M1991.94 -88.28L1718.05 71.49" stroke="#132e65" stroke-width="1.5"></path><path d="M2006.44 88.83L2006.44 88.83" stroke="#132e65" stroke-width="1.5"></path><path d="M2006.44 88.83L2024.84 188.85" stroke="#132e65" stroke-width="1.5"></path><path d="M2006.44 88.83L1884.76 -49.74" stroke="#132e65" stroke-width="1.5"></path><path d="M2006.44 88.83L1842.26 193.99" stroke="#132e65" stroke-width="1.5"></path><path d="M2024.84 188.85L2024.84 188.85" stroke="#132e65" stroke-width="1.5"></path><path d="M2024.84 188.85L1905.67 62.67" stroke="#132e65" stroke-width="1.5"></path><path d="M2024.84 188.85L1842.26 193.99" stroke="#132e65" stroke-width="1.5"></path><path d="M2024.84 188.85L2019.34 396.07" stroke="#132e65" stroke-width="1.5"></path><path d="M2019.34 396.07L2019.34 396.07" stroke="#132e65" stroke-width="1.5"></path><path d="M2019.34 396.07L1752.72 382.57" stroke="#132e65" stroke-width="1.5"></path><circle r="5" cx="-69.2" cy="339.04" fill="#132e65"></circle><circle r="5" cx="95.95" cy="207.35" fill="#132e65"></circle><circle r="5" cx="47.13" cy="340.53" fill="#132e65"></circle><circle r="5" cx="198.85" cy="228.44" fill="#132e65"></circle><circle r="5" cx="255.81" cy="369.73" fill="#132e65"></circle><circle r="5" cx="351.78" cy="206.95" fill="#132e65"></circle><circle r="5" cx="383.95" cy="340.22" fill="#132e65"></circle><circle r="5" cx="545.79" cy="232.5" fill="#132e65"></circle><circle r="5" cx="518.93" cy="356.81" fill="#132e65"></circle><circle r="5" cx="676.61" cy="102.27" fill="#132e65"></circle><circle r="5" cx="682.51" cy="200.57" fill="#132e65"></circle><circle r="5" cx="710.17" cy="344.95" fill="#132e65"></circle><circle r="5" cx="808.05" cy="245.45" fill="#132e65"></circle><circle r="5" cx="789.62" cy="389.8" fill="#132e65"></circle><circle r="5" cx="990.41" cy="71.72" fill="#132e65"></circle><circle r="5" cx="1153.04" cy="-95.91" fill="#132e65"></circle><circle r="5" cx="1087.78" cy="57.55" fill="#132e65"></circle><circle r="5" cx="1153.05" cy="237.73" fill="#132e65"></circle><circle r="5" cx="1102.02" cy="389.98" fill="#132e65"></circle><circle r="5" cx="1291.18" cy="-48.14" fill="#132e65"></circle><circle r="5" cx="1300.93" cy="82.49" fill="#132e65"></circle><circle r="5" cx="1304" cy="221.98" fill="#132e65"></circle><circle r="5" cx="1291.32" cy="392.24" fill="#132e65"></circle><circle r="5" cx="1433.55" cy="-46.75" fill="#132e65"></circle><circle r="5" cx="1425.9" cy="95.28" fill="#132e65"></circle><circle r="5" cx="1388.07" cy="367.51" fill="#132e65"></circle><circle r="5" cx="1595.38" cy="-39.36" fill="#132e65"></circle><circle r="5" cx="1558.01" cy="93.05" fill="#132e65"></circle><circle r="5" cx="1548.36" cy="203.49" fill="#132e65"></circle><circle r="5" cx="1589.54" cy="369.12" fill="#132e65"></circle><circle r="5" cx="1739.59" cy="-63.52" fill="#132e65"></circle><circle r="5" cx="1718.05" cy="71.49" fill="#132e65"></circle><circle r="5" cx="1704.43" cy="246.77" fill="#132e65"></circle><circle r="5" cx="1752.72" cy="382.57" fill="#132e65"></circle><circle r="5" cx="1884.76" cy="-49.74" fill="#132e65"></circle><circle r="5" cx="1905.67" cy="62.67" fill="#132e65"></circle><circle r="5" cx="1842.26" cy="193.99" fill="#132e65"></circle><circle r="5" cx="1854.26" cy="391.67" fill="#132e65"></circle><circle r="5" cx="1991.94" cy="-88.28" fill="#132e65"></circle><circle r="5" cx="2006.44" cy="88.83" fill="#132e65"></circle><circle r="5" cx="2024.84" cy="188.85" fill="#132e65"></circle><circle r="5" cx="2019.34" cy="396.07" fill="#132e65"></circle><path d="M373.07 357.27L373.07 357.27" stroke="hsl(228.5, 77.2%, 51.5%)" stroke-width="1.5"></path><path d="M373.07 357.27L360.94 247.69" stroke="hsl(228.5, 77.2%, 51.5%)" stroke-width="1.5"></path><path d="M373.07 357.27L196.11 379.94" stroke="hsl(228.5, 77.2%, 51.5%)" stroke-width="1.5"></path><path d="M373.07 357.27L551.95 371.52" stroke="hsl(228.5, 77.2%, 51.5%)" stroke-width="1.5"></path><path d="M373.07 357.27L502.83 221.83" stroke="hsl(228.5, 77.2%, 51.5%)" stroke-width="1.5"></path><path d="M839.67 364.68L839.67 364.68" stroke="hsl(228.5, 77.2%, 51.5%)" stroke-width="1.5"></path><path d="M839.67 364.68L825.37 259.62" stroke="hsl(228.5, 77.2%, 51.5%)" stroke-width="1.5"></path><path d="M839.67 364.68L712.23 391.59" stroke="hsl(228.5, 77.2%, 51.5%)" stroke-width="1.5"></path><path d="M839.67 364.68L987.58 383.15" stroke="hsl(228.5, 77.2%, 51.5%)" stroke-width="1.5"></path><path d="M948.75 223.9L948.75 223.9" stroke="hsl(228.5, 77.2%, 51.5%)" stroke-width="1.5"></path><path d="M948.75 223.9L825.37 259.62" stroke="hsl(228.5, 77.2%, 51.5%)" stroke-width="1.5"></path><path d="M948.75 223.9L987.58 383.15" stroke="hsl(228.5, 77.2%, 51.5%)" stroke-width="1.5"></path><path d="M948.75 223.9L839.67 364.68" stroke="hsl(228.5, 77.2%, 51.5%)" stroke-width="1.5"></path><path d="M1146.34 236.19L1146.34 236.19" stroke="hsl(228.5, 77.2%, 51.5%)" stroke-width="1.5"></path><path d="M1146.34 236.19L1087.65 354.92" stroke="hsl(228.5, 77.2%, 51.5%)" stroke-width="1.5"></path><path d="M1146.34 236.19L1261.99 392.95" stroke="hsl(228.5, 77.2%, 51.5%)" stroke-width="1.5"></path><path d="M1146.34 236.19L948.75 223.9" stroke="hsl(228.5, 77.2%, 51.5%)" stroke-width="1.5"></path><path d="M1577.91 -106.04L1577.91 -106.04" stroke="hsl(228.5, 77.2%, 51.5%)" stroke-width="1.5"></path><path d="M1577.91 -106.04L1717.46 -89.63" stroke="hsl(228.5, 77.2%, 51.5%)" stroke-width="1.5"></path><path d="M1577.91 -106.04L1605.04 72.59" stroke="hsl(228.5, 77.2%, 51.5%)" stroke-width="1.5"></path><path d="M1577.91 -106.04L1391.97 76.85" stroke="hsl(228.5, 77.2%, 51.5%)" stroke-width="1.5"></path><path d="M1577.91 -106.04L1893.19 -48.95" stroke="hsl(228.5, 77.2%, 51.5%)" stroke-width="1.5"></path><path d="M1577.91 -106.04L1875.81 48.42" stroke="hsl(228.5, 77.2%, 51.5%)" stroke-width="1.5"></path><path d="M1893.19 -48.95L1893.19 -48.95" stroke="hsl(228.5, 77.2%, 51.5%)" stroke-width="1.5"></path><path d="M1893.19 -48.95L1875.81 48.42" stroke="hsl(228.5, 77.2%, 51.5%)" stroke-width="1.5"></path><path d="M1893.19 -48.95L1988.08 40.17" stroke="hsl(228.5, 77.2%, 51.5%)" stroke-width="1.5"></path><path d="M1893.19 -48.95L2021.92 -109.13" stroke="hsl(228.5, 77.2%, 51.5%)" stroke-width="1.5"></path><path d="M1893.19 -48.95L1717.46 -89.63" stroke="hsl(228.5, 77.2%, 51.5%)" stroke-width="1.5"></path><path d="M1893.19 -48.95L1847.89 190.35" stroke="hsl(228.5, 77.2%, 51.5%)" stroke-width="1.5"></path><path d="M1893.19 -48.95L1605.04 72.59" stroke="hsl(228.5, 77.2%, 51.5%)" stroke-width="1.5"></path><path d="M-107.2 197.06L-107.2 197.06" stroke="hsl(228.5, 77.2%, 51.5%)" stroke-width="1.5"></path><path d="M-107.2 197.06L-67.94 361.73" stroke="hsl(228.5, 77.2%, 51.5%)" stroke-width="1.5"></path><path d="M-107.2 197.06L86.93 188.18" stroke="hsl(228.5, 77.2%, 51.5%)" stroke-width="1.5"></path><path d="M-107.2 197.06L42.39 371.02" stroke="hsl(228.5, 77.2%, 51.5%)" stroke-width="1.5"></path><path d="M-107.2 197.06L238.4 203.87" stroke="hsl(228.5, 77.2%, 51.5%)" stroke-width="1.5"></path><path d="M-107.2 197.06L196.11 379.94" stroke="hsl(228.5, 77.2%, 51.5%)" stroke-width="1.5"></path><path d="M-67.94 361.73L-67.94 361.73" stroke="hsl(228.5, 77.2%, 51.5%)" stroke-width="1.5"></path><path d="M-67.94 361.73L42.39 371.02" stroke="hsl(228.5, 77.2%, 51.5%)" stroke-width="1.5"></path><path d="M86.93 188.18L86.93 188.18" stroke="hsl(228.5, 77.2%, 51.5%)" stroke-width="1.5"></path><path d="M86.93 188.18L238.4 203.87" stroke="hsl(228.5, 77.2%, 51.5%)" stroke-width="1.5"></path><path d="M86.93 188.18L42.39 371.02" stroke="hsl(228.5, 77.2%, 51.5%)" stroke-width="1.5"></path><path d="M86.93 188.18L196.11 379.94" stroke="hsl(228.5, 77.2%, 51.5%)" stroke-width="1.5"></path><path d="M86.93 188.18L-67.94 361.73" stroke="hsl(228.5, 77.2%, 51.5%)" stroke-width="1.5"></path><path d="M42.39 371.02L42.39 371.02" stroke="hsl(228.5, 77.2%, 51.5%)" stroke-width="1.5"></path><path d="M42.39 371.02L196.11 379.94" stroke="hsl(228.5, 77.2%, 51.5%)" stroke-width="1.5"></path><path d="M238.4 203.87L238.4 203.87" stroke="hsl(228.5, 77.2%, 51.5%)" stroke-width="1.5"></path><path d="M238.4 203.87L360.94 247.69" stroke="hsl(228.5, 77.2%, 51.5%)" stroke-width="1.5"></path><path d="M238.4 203.87L196.11 379.94" stroke="hsl(228.5, 77.2%, 51.5%)" stroke-width="1.5"></path><path d="M196.11 379.94L196.11 379.94" stroke="hsl(228.5, 77.2%, 51.5%)" stroke-width="1.5"></path><path d="M196.11 379.94L360.94 247.69" stroke="hsl(228.5, 77.2%, 51.5%)" stroke-width="1.5"></path><path d="M360.94 247.69L360.94 247.69" stroke="hsl(228.5, 77.2%, 51.5%)" stroke-width="1.5"></path><path d="M360.94 247.69L502.83 221.83" stroke="hsl(228.5, 77.2%, 51.5%)" stroke-width="1.5"></path><path d="M360.94 247.69L551.95 371.52" stroke="hsl(228.5, 77.2%, 51.5%)" stroke-width="1.5"></path><path d="M360.94 247.69L86.93 188.18" stroke="hsl(228.5, 77.2%, 51.5%)" stroke-width="1.5"></path><path d="M502.83 221.83L502.83 221.83" stroke="hsl(228.5, 77.2%, 51.5%)" stroke-width="1.5"></path><path d="M502.83 221.83L551.95 371.52" stroke="hsl(228.5, 77.2%, 51.5%)" stroke-width="1.5"></path><path d="M502.83 221.83L238.4 203.87" stroke="hsl(228.5, 77.2%, 51.5%)" stroke-width="1.5"></path><path d="M502.83 221.83L712.23 391.59" stroke="hsl(228.5, 77.2%, 51.5%)" stroke-width="1.5"></path><path d="M551.95 371.52L551.95 371.52" stroke="hsl(228.5, 77.2%, 51.5%)" stroke-width="1.5"></path><path d="M551.95 371.52L712.23 391.59" stroke="hsl(228.5, 77.2%, 51.5%)" stroke-width="1.5"></path><path d="M551.95 371.52L839.67 364.68" stroke="hsl(228.5, 77.2%, 51.5%)" stroke-width="1.5"></path><path d="M551.95 371.52L825.37 259.62" stroke="hsl(228.5, 77.2%, 51.5%)" stroke-width="1.5"></path><path d="M712.23 391.59L712.23 391.59" stroke="hsl(228.5, 77.2%, 51.5%)" stroke-width="1.5"></path><path d="M712.23 391.59L825.37 259.62" stroke="hsl(228.5, 77.2%, 51.5%)" stroke-width="1.5"></path><path d="M825.37 259.62L825.37 259.62" stroke="hsl(228.5, 77.2%, 51.5%)" stroke-width="1.5"></path><path d="M825.37 259.62L987.58 383.15" stroke="hsl(228.5, 77.2%, 51.5%)" stroke-width="1.5"></path><path d="M987.58 383.15L987.58 383.15" stroke="hsl(228.5, 77.2%, 51.5%)" stroke-width="1.5"></path><path d="M987.58 383.15L1087.65 354.92" stroke="hsl(228.5, 77.2%, 51.5%)" stroke-width="1.5"></path><path d="M1087.65 354.92L1087.65 354.92" stroke="hsl(228.5, 77.2%, 51.5%)" stroke-width="1.5"></path><path d="M1087.65 354.92L1261.99 392.95" stroke="hsl(228.5, 77.2%, 51.5%)" stroke-width="1.5"></path><path d="M1087.65 354.92L948.75 223.9" stroke="hsl(228.5, 77.2%, 51.5%)" stroke-width="1.5"></path><path d="M1087.65 354.92L839.67 364.68" stroke="hsl(228.5, 77.2%, 51.5%)" stroke-width="1.5"></path><path d="M1261.99 392.95L1261.99 392.95" stroke="hsl(228.5, 77.2%, 51.5%)" stroke-width="1.5"></path><path d="M1261.99 392.95L1428.14 385.56" stroke="hsl(228.5, 77.2%, 51.5%)" stroke-width="1.5"></path><path d="M1391.97 76.85L1391.97 76.85" stroke="hsl(228.5, 77.2%, 51.5%)" stroke-width="1.5"></path><path d="M1391.97 76.85L1414.71 261.26" stroke="hsl(228.5, 77.2%, 51.5%)" stroke-width="1.5"></path><path d="M1391.97 76.85L1605.04 72.59" stroke="hsl(228.5, 77.2%, 51.5%)" stroke-width="1.5"></path><path d="M1391.97 76.85L1610.96 254.46" stroke="hsl(228.5, 77.2%, 51.5%)" stroke-width="1.5"></path><path d="M1391.97 76.85L1146.34 236.19" stroke="hsl(228.5, 77.2%, 51.5%)" stroke-width="1.5"></path><path d="M1391.97 76.85L1428.14 385.56" stroke="hsl(228.5, 77.2%, 51.5%)" stroke-width="1.5"></path><path d="M1414.71 261.26L1414.71 261.26" stroke="hsl(228.5, 77.2%, 51.5%)" stroke-width="1.5"></path><path d="M1414.71 261.26L1428.14 385.56" stroke="hsl(228.5, 77.2%, 51.5%)" stroke-width="1.5"></path><path d="M1428.14 385.56L1428.14 385.56" stroke="hsl(228.5, 77.2%, 51.5%)" stroke-width="1.5"></path><path d="M1428.14 385.56L1599.29 369.02" stroke="hsl(228.5, 77.2%, 51.5%)" stroke-width="1.5"></path><path d="M1605.04 72.59L1605.04 72.59" stroke="hsl(228.5, 77.2%, 51.5%)" stroke-width="1.5"></path><path d="M1610.96 254.46L1610.96 254.46" stroke="hsl(228.5, 77.2%, 51.5%)" stroke-width="1.5"></path><path d="M1610.96 254.46L1703.78 250.45" stroke="hsl(228.5, 77.2%, 51.5%)" stroke-width="1.5"></path><path d="M1610.96 254.46L1599.29 369.02" stroke="hsl(228.5, 77.2%, 51.5%)" stroke-width="1.5"></path><path d="M1610.96 254.46L1688.16 399.39" stroke="hsl(228.5, 77.2%, 51.5%)" stroke-width="1.5"></path><path d="M1610.96 254.46L1605.04 72.59" stroke="hsl(228.5, 77.2%, 51.5%)" stroke-width="1.5"></path><path d="M1599.29 369.02L1599.29 369.02" stroke="hsl(228.5, 77.2%, 51.5%)" stroke-width="1.5"></path><path d="M1599.29 369.02L1688.16 399.39" stroke="hsl(228.5, 77.2%, 51.5%)" stroke-width="1.5"></path><path d="M1599.29 369.02L1703.78 250.45" stroke="hsl(228.5, 77.2%, 51.5%)" stroke-width="1.5"></path><path d="M1717.46 -89.63L1717.46 -89.63" stroke="hsl(228.5, 77.2%, 51.5%)" stroke-width="1.5"></path><path d="M1717.46 -89.63L1605.04 72.59" stroke="hsl(228.5, 77.2%, 51.5%)" stroke-width="1.5"></path><path d="M1717.46 -89.63L1875.81 48.42" stroke="hsl(228.5, 77.2%, 51.5%)" stroke-width="1.5"></path><path d="M1703.78 250.45L1703.78 250.45" stroke="hsl(228.5, 77.2%, 51.5%)" stroke-width="1.5"></path><path d="M1703.78 250.45L1688.16 399.39" stroke="hsl(228.5, 77.2%, 51.5%)" stroke-width="1.5"></path><path d="M1703.78 250.45L1847.89 190.35" stroke="hsl(228.5, 77.2%, 51.5%)" stroke-width="1.5"></path><path d="M1688.16 399.39L1688.16 399.39" stroke="hsl(228.5, 77.2%, 51.5%)" stroke-width="1.5"></path><path d="M1688.16 399.39L1858.13 369.31" stroke="hsl(228.5, 77.2%, 51.5%)" stroke-width="1.5"></path><path d="M1688.16 399.39L1428.14 385.56" stroke="hsl(228.5, 77.2%, 51.5%)" stroke-width="1.5"></path><path d="M1875.81 48.42L1875.81 48.42" stroke="hsl(228.5, 77.2%, 51.5%)" stroke-width="1.5"></path><path d="M1875.81 48.42L1988.08 40.17" stroke="hsl(228.5, 77.2%, 51.5%)" stroke-width="1.5"></path><path d="M1847.89 190.35L1847.89 190.35" stroke="hsl(228.5, 77.2%, 51.5%)" stroke-width="1.5"></path><path d="M1847.89 190.35L1875.81 48.42" stroke="hsl(228.5, 77.2%, 51.5%)" stroke-width="1.5"></path><path d="M1847.89 190.35L1858.13 369.31" stroke="hsl(228.5, 77.2%, 51.5%)" stroke-width="1.5"></path><path d="M1847.89 190.35L2028.2 234.62" stroke="hsl(228.5, 77.2%, 51.5%)" stroke-width="1.5"></path><path d="M1847.89 190.35L1988.08 40.17" stroke="hsl(228.5, 77.2%, 51.5%)" stroke-width="1.5"></path><path d="M1858.13 369.31L1858.13 369.31" stroke="hsl(228.5, 77.2%, 51.5%)" stroke-width="1.5"></path><path d="M2021.92 -109.13L2021.92 -109.13" stroke="hsl(228.5, 77.2%, 51.5%)" stroke-width="1.5"></path><path d="M2021.92 -109.13L1988.08 40.17" stroke="hsl(228.5, 77.2%, 51.5%)" stroke-width="1.5"></path><path d="M1988.08 40.17L1988.08 40.17" stroke="hsl(228.5, 77.2%, 51.5%)" stroke-width="1.5"></path><path d="M2028.2 234.62L2028.2 234.62" stroke="hsl(228.5, 77.2%, 51.5%)" stroke-width="1.5"></path><path d="M2028.2 234.62L2035.07 348.83" stroke="hsl(228.5, 77.2%, 51.5%)" stroke-width="1.5"></path><path d="M2028.2 234.62L1988.08 40.17" stroke="hsl(228.5, 77.2%, 51.5%)" stroke-width="1.5"></path><path d="M2028.2 234.62L1858.13 369.31" stroke="hsl(228.5, 77.2%, 51.5%)" stroke-width="1.5"></path><path d="M2035.07 348.83L2035.07 348.83" stroke="hsl(228.5, 77.2%, 51.5%)" stroke-width="1.5"></path><path d="M2035.07 348.83L1858.13 369.31" stroke="hsl(228.5, 77.2%, 51.5%)" stroke-width="1.5"></path><path d="M2035.07 348.83L1847.89 190.35" stroke="hsl(228.5, 77.2%, 51.5%)" stroke-width="1.5"></path><path d="M2035.07 348.83L1988.08 40.17" stroke="hsl(228.5, 77.2%, 51.5%)" stroke-width="1.5"></path><path d="M2035.07 348.83L1875.81 48.42" stroke="hsl(228.5, 77.2%, 51.5%)" stroke-width="1.5"></path><circle r="25" cx="373.07" cy="357.27" fill="url(#SvgjsRadialGradient1159)"></circle><circle r="25" cx="839.67" cy="364.68" fill="url(#SvgjsRadialGradient1159)"></circle><circle r="25" cx="948.75" cy="223.9" fill="url(#SvgjsRadialGradient1159)"></circle><circle r="25" cx="1146.34" cy="236.19" fill="url(#SvgjsRadialGradient1159)"></circle><circle r="25" cx="1577.91" cy="-106.04" fill="url(#SvgjsRadialGradient1159)"></circle><circle r="25" cx="1893.19" cy="-48.95" fill="url(#SvgjsRadialGradient1159)"></circle><circle r="5" cx="-107.2" cy="197.06" fill="#8b9ad9"></circle><circle r="5" cx="-67.94" cy="361.73" fill="#8b9ad9"></circle><circle r="5" cx="86.93" cy="188.18" fill="#8b9ad9"></circle><circle r="5" cx="42.39" cy="371.02" fill="#8b9ad9"></circle><circle r="5" cx="238.4" cy="203.87" fill="#8b9ad9"></circle><circle r="5" cx="196.11" cy="379.94" fill="#8b9ad9"></circle><circle r="5" cx="360.94" cy="247.69" fill="#8b9ad9"></circle><circle r="5" cx="502.83" cy="221.83" fill="#8b9ad9"></circle><circle r="5" cx="551.95" cy="371.52" fill="#8b9ad9"></circle><circle r="5" cx="712.23" cy="391.59" fill="#8b9ad9"></circle><circle r="5" cx="825.37" cy="259.62" fill="#8b9ad9"></circle><circle r="5" cx="987.58" cy="383.15" fill="#8b9ad9"></circle><circle r="5" cx="1087.65" cy="354.92" fill="#8b9ad9"></circle><circle r="5" cx="1261.99" cy="392.95" fill="#8b9ad9"></circle><circle r="5" cx="1391.97" cy="76.85" fill="#8b9ad9"></circle><circle r="5" cx="1414.71" cy="261.26" fill="#8b9ad9"></circle><circle r="5" cx="1428.14" cy="385.56" fill="#8b9ad9"></circle><circle r="5" cx="1605.04" cy="72.59" fill="#8b9ad9"></circle><circle r="5" cx="1610.96" cy="254.46" fill="#8b9ad9"></circle><circle r="5" cx="1599.29" cy="369.02" fill="#8b9ad9"></circle><circle r="5" cx="1717.46" cy="-89.63" fill="#8b9ad9"></circle><circle r="5" cx="1703.78" cy="250.45" fill="#8b9ad9"></circle><circle r="5" cx="1688.16" cy="399.39" fill="#8b9ad9"></circle><circle r="5" cx="1875.81" cy="48.42" fill="#8b9ad9"></circle><circle r="5" cx="1847.89" cy="190.35" fill="#8b9ad9"></circle><circle r="5" cx="1858.13" cy="369.31" fill="#8b9ad9"></circle><circle r="5" cx="2021.92" cy="-109.13" fill="#8b9ad9"></circle><circle r="5" cx="1988.08" cy="40.17" fill="#8b9ad9"></circle><circle r="5" cx="2028.2" cy="234.62" fill="#8b9ad9"></circle><circle r="5" cx="2035.07" cy="348.83" fill="#8b9ad9"></circle></g><defs><mask id="SvgjsMask1158"><rect width="1903" height="200" fill="#ffffff"></rect></mask><radialGradient id="SvgjsRadialGradient1159"><stop stop-color="#ffffff" offset="0.1"></stop><stop stop-color="#1735b3" offset="0.2"></stop><stop stop-color="rgba(23, 53, 179, 0)" offset="1"></stop></radialGradient></defs></svg>