<svg xmlns="http://www.w3.org/2000/svg" version="1.1" xmlns:xlink="http://www.w3.org/1999/xlink" xmlns:svgjs="http://svgjs.com/svgjs" width="1920" height="15000" preserveAspectRatio="none" viewBox="0 0 1920 15000"><g mask="url(&quot;#SvgjsMask1750&quot;)" fill="none"><rect width="1920" height="15000" x="0" y="0" fill="url(#SvgjsLinearGradient1751)"></rect><path d="M595.243106533679 3439.4520345011365L261.37378261618596 3451.111008202025 445.7969051262652 3946.0855072278205z" fill="rgba(158, 0, 61, 1)" class="triangle-float2"></path><path d="M1050.7467421787574 11510.935596712632L497.9560513117202 11413.463683228301 400.4841378273892 11966.254374095339 953.2748286944263 12063.72628757967z" fill="rgba(158, 0, 61, 1)" class="triangle-float2"></path><path d="M-156.56615906906944 3007.6734096731534L325.3531034724158 3297.2397160851356 614.919409884398 2815.3204535436503 133.00014734291273 2525.754147131668z" fill="rgba(158, 0, 61, 1)" class="triangle-float1"></path><path d="M-43.90610026677379 9184.64809107283L404.97830913324367 9296.567544375977 516.8977624363906 8847.68313497596 68.01335303637312 8735.763681672812z" fill="rgba(158, 0, 61, 1)" class="triangle-float3"></path><path d="M1036.4391303818534 7898.612175857397L883.0511659288346 7477.18220710662 461.6211971780576 7630.570171559639 615.0091616310763 8052.000140310416z" fill="rgba(158, 0, 61, 1)" class="triangle-float1"></path><path d="M141.2842361339508 5870.505847862269L452.48656469767485 6228.503174895589 499.28156316727126 5559.303519298544z" fill="rgba(158, 0, 61, 1)" class="triangle-float1"></path><path d="M748.708386729037 14218.012319649515L446.99046126025945 14700.861933807833 1231.5580008873558 14519.730245118293z" fill="rgba(158, 0, 61, 1)" class="triangle-float3"></path><path d="M447.86613521582257 1884.1652547718606L263.67121411933573 2074.904679213535 641.8778113300905 2255.8273486374283z" fill="rgba(158, 0, 61, 1)" class="triangle-float2"></path><path d="M1314.492281004964 10147.519547302567L1149.644443752022 9777.265242733882 779.3901391833367 9942.113079986824 944.2379764362788 10312.36738455551z" fill="rgba(158, 0, 61, 1)" class="triangle-float2"></path><path d="M1662.3231972356573 3921.410582476566L1776.6489229808535 3607.3032325288773 1248.325035186722 3592.8683188849272z" fill="rgba(158, 0, 61, 1)" class="triangle-float1"></path><path d="M1309.366241636848 612.9792619607153L1098.7882274626925 180.1839901781825 857.463639004691 524.8312201623389z" fill="rgba(158, 0, 61, 1)" class="triangle-float3"></path><path d="M1614.0868241019843 6730.608099965008L1148.5209824323777 7009.744742589239 1559.4693874106326 7247.005914826482z" fill="rgba(158, 0, 61, 1)" class="triangle-float3"></path><path d="M1274.5019942732301 4849.819219717611L1587.8424865493537 4989.327395147639 1414.0101697032583 4536.4787274414875z" fill="rgba(158, 0, 61, 1)" class="triangle-float1"></path><path d="M1323.1622833524834 8436.095737273614L1317.8163273979096 8742.365348790874 1624.0859389151697 8747.711304745448 1629.4318948697435 8441.441693228187z" fill="rgba(158, 0, 61, 1)" class="triangle-float2"></path><path d="M1593.2956185145229 9465.196203094316L1914.0658614729753 9588.328362875638 2037.1980212542971 9267.558119917185 1716.4277782958447 9144.425960135864z" fill="rgba(158, 0, 61, 1)" class="triangle-float3"></path><path d="M1714.9472724310845 1355.0055582050556L1643.492994675354 846.5819537271022 1135.0693901974007 918.0362314828325 1206.523667953131 1426.459835960786z" fill="rgba(158, 0, 61, 1)" class="triangle-float3"></path><path d="M344.53736903022434 261.3993217859815L-150.28846155284077 209.39103127284534-202.296752065977 704.2168618559105 292.5290785170882 756.2251523690466z" fill="rgba(158, 0, 61, 1)" class="triangle-float2"></path><path d="M411.36117899290775 5126.42796591726L809.3556077175415 5119.480947322802 404.4141603984504 4728.433537192626z" fill="rgba(158, 0, 61, 1)" class="triangle-float1"></path><path d="M1243.4273813322156 13919.585723816921L1066.5915287640596 13625.281442643778 772.2872475909162 13802.117295211934 949.1231001590724 14096.421576385077z" fill="rgba(158, 0, 61, 1)" class="triangle-float2"></path><path d="M1375.6470189898405 5731.9766977983045L1247.757267133325 5579.56362656732 1083.0825362151065 5847.604789967585z" fill="rgba(158, 0, 61, 1)" class="triangle-float2"></path></g><defs><mask id="SvgjsMask1750"><rect width="1920" height="15000" fill="#ffffff"></rect></mask><linearGradient x1="-170.31%" y1="78.2%" x2="270.31%" y2="21.8%" gradientUnits="userSpaceOnUse" id="SvgjsLinearGradient1751"><stop stop-color="rgba(218, 15, 26, 1)" offset="0.31"></stop><stop stop-color="rgba(73, 14, 147, 1)" offset="0.76"></stop></linearGradient><style>
            @keyframes float1 {
                0%{transform: translate(0, 0)}
                50%{transform: translate(-10px, 0)}
                100%{transform: translate(0, 0)}
            }

            .triangle-float1 {
                animation: float1 5s infinite;
            }

            @keyframes float2 {
                0%{transform: translate(0, 0)}
                50%{transform: translate(-5px, -5px)}
                100%{transform: translate(0, 0)}
            }

            .triangle-float2 {
                animation: float2 4s infinite;
            }

            @keyframes float3 {
                0%{transform: translate(0, 0)}
                50%{transform: translate(0, -10px)}
                100%{transform: translate(0, 0)}
            }

            .triangle-float3 {
                animation: float3 6s infinite;
            }
        </style></defs></svg>