<svg xmlns="http://www.w3.org/2000/svg" version="1.1" xmlns:xlink="http://www.w3.org/1999/xlink" xmlns:svgjs="http://svgjs.com/svgjs" width="1920" height="15000" preserveAspectRatio="none" viewBox="0 0 1920 15000"><g mask="url(&quot;#SvgjsMask1003&quot;)" fill="none"><rect width="1920" height="15000" x="0" y="0" fill="rgba(33, 34, 35, 1)"></rect><path d="M377.11 2825.74 a157.7 157.7 0 1 0 315.4 0 a157.7 157.7 0 1 0 -315.4 0z" stroke="rgba(201, 157, 19, 1)"></path><path d="M1353.95 10331.43L1489.5 10331.43L1489.5 10367.7L1353.95 10367.7z" stroke="rgba(201, 157, 19, 1)"></path><path d="M1108.59 600 a72.22 72.22 0 1 0 144.44 0 a72.22 72.22 0 1 0 -144.44 0z" fill="rgba(201, 157, 19, 1)"></path><path d="M976.96 2929.39L1011.6 2929.39L1011.6 3113.45L976.96 3113.45z" fill="rgba(201, 157, 19, 1)"></path><path d="M1417.16 1439.09 a164.5 164.5 0 1 0 329 0 a164.5 164.5 0 1 0 -329 0z" fill="rgba(201, 157, 19, 1)"></path><path d="M761.15 10175.66 a159.62 159.62 0 1 0 319.24 0 a159.62 159.62 0 1 0 -319.24 0z" stroke="rgba(201, 157, 19, 1)"></path><path d="M1220.09 9998.12L1236.5 9998.12L1236.5 10014.53L1220.09 10014.53z" stroke="rgba(201, 157, 19, 1)"></path><path d="M202.39 12120.95 a163.86 163.86 0 1 0 327.72 0 a163.86 163.86 0 1 0 -327.72 0z" stroke="rgba(201, 157, 19, 1)"></path><path d="M586.12 7805.57L610.53 7805.57L610.53 7818.06L586.12 7818.06z" stroke="rgba(201, 157, 19, 1)"></path><path d="M39.79 13914.37L182.67 13914.37L182.67 14057.25L39.79 14057.25z" fill="rgba(201, 157, 19, 1)"></path><path d="M252.44 6106.33L326.45 6106.33L326.45 6141.19L252.44 6141.19z" stroke="rgba(201, 157, 19, 1)"></path><path d="M91.52 2117.72a97.04 97.04 0 1 0 145.44-128.5z" stroke="rgba(201, 157, 19, 1)"></path><path d="M1727.45 1766.75 a92.94 92.94 0 1 0 185.88 0 a92.94 92.94 0 1 0 -185.88 0z" fill="rgba(201, 157, 19, 1)"></path><path d="M416.65 3131.94L533.44 3131.94L533.44 3248.73L416.65 3248.73z" fill="rgba(201, 157, 19, 1)"></path><path d="M1829.43 7343.27L1911.41 7343.27L1911.41 7396.01L1829.43 7396.01z" fill="rgba(201, 157, 19, 1)"></path><path d="M1013.98 1755.78L1132.74 1755.78L1132.74 1867.12L1013.98 1867.12z" stroke="rgba(201, 157, 19, 1)"></path><path d="M116.38 7174.48L166.09 7174.48L166.09 7336.04L116.38 7336.04z" fill="rgba(201, 157, 19, 1)"></path><path d="M1083.18 840.89 a186.28 186.28 0 1 0 372.56 0 a186.28 186.28 0 1 0 -372.56 0z" stroke="rgba(201, 157, 19, 1)"></path><path d="M1078.66 14353.43L1204.51 14353.43L1204.51 14479.28L1078.66 14479.28z" fill="rgba(201, 157, 19, 1)"></path><path d="M197.38 5587.95 a111.45 111.45 0 1 0 222.9 0 a111.45 111.45 0 1 0 -222.9 0z" stroke="rgba(201, 157, 19, 1)"></path><path d="M331.87 732.98L476.11 732.98L476.11 805.05L331.87 805.05z" stroke="rgba(201, 157, 19, 1)"></path><path d="M1333.84 9247.53L1441.17 9247.53L1441.17 9407.77L1333.84 9407.77z" fill="rgba(201, 157, 19, 1)"></path><path d="M568.07 13865.92a188.48 188.48 0 1 0 139.64 350.14z" stroke="rgba(201, 157, 19, 1)"></path><path d="M1491.63 13005.17L1629.98 13005.17L1629.98 13017.48L1491.63 13017.48z" stroke="rgba(201, 157, 19, 1)"></path><path d="M260.27 3105.23a150.84 150.84 0 1 0-293.81-68.47z" stroke="rgba(201, 157, 19, 1)"></path><path d="M1027.21 2713.87 a53.6 53.6 0 1 0 107.2 0 a53.6 53.6 0 1 0 -107.2 0z" stroke="rgba(201, 157, 19, 1)"></path><path d="M1340.62 5000.72a80.79 80.79 0 1 0 113.45-115.04z" fill="rgba(201, 157, 19, 1)"></path><path d="M1503.45 7085.15a151.81 151.81 0 1 0-271.45-136.03z" fill="rgba(201, 157, 19, 1)"></path><path d="M564.99 14689.28a68.39 68.39 0 1 0-75.58 114.01z" stroke="rgba(201, 157, 19, 1)"></path><path d="M122.48 11798.69L180.54 11798.69L180.54 11856.75L122.48 11856.75z" stroke="rgba(201, 157, 19, 1)"></path><path d="M1487.06 5840.43a1.22 1.22 0 1 0 2.1 1.24z" stroke="rgba(201, 157, 19, 1)"></path><path d="M1162.05 14990.17 a111.28 111.28 0 1 0 222.56 0 a111.28 111.28 0 1 0 -222.56 0z" fill="rgba(201, 157, 19, 1)"></path><path d="M1231.36 869.23 a172.39 172.39 0 1 0 344.78 0 a172.39 172.39 0 1 0 -344.78 0z" fill="rgba(201, 157, 19, 1)"></path><path d="M1532.46 12211.82L1700.13 12211.82L1700.13 12379.49L1532.46 12379.49z" fill="rgba(201, 157, 19, 1)"></path><path d="M830.85 9059.6a147.38 147.38 0 1 0 152.51-252.24z" stroke="rgba(201, 157, 19, 1)"></path><path d="M1855.29 3353.82 a21.27 21.27 0 1 0 42.54 0 a21.27 21.27 0 1 0 -42.54 0z" stroke="rgba(201, 157, 19, 1)"></path><path d="M1357.41 644.9 a11.15 11.15 0 1 0 22.3 0 a11.15 11.15 0 1 0 -22.3 0z" fill="rgba(201, 157, 19, 1)"></path><path d="M161.48 12194.12a21.26 21.26 0 1 0-34.86-24.35z" stroke="rgba(201, 157, 19, 1)"></path><path d="M1529.67 5280.84L1673.38 5280.84L1673.38 5410.54L1529.67 5410.54z" stroke="rgba(201, 157, 19, 1)"></path><path d="M607.16 3263.85L665.07 3263.85L665.07 3321.76L607.16 3321.76z" fill="rgba(201, 157, 19, 1)"></path><path d="M186.99 857.54L256.99 857.54L256.99 927.54L186.99 927.54z" fill="rgba(201, 157, 19, 1)"></path><path d="M1271.42 4125.16a72.68 72.68 0 1 0 121.52 79.76z" stroke="rgba(201, 157, 19, 1)"></path><path d="M1527.74 3314.2 a51.14 51.14 0 1 0 102.28 0 a51.14 51.14 0 1 0 -102.28 0z" fill="rgba(201, 157, 19, 1)"></path><path d="M1399.95 3331.79a50.56 50.56 0 1 0-5.21-100.99z" fill="rgba(201, 157, 19, 1)"></path><path d="M57.54 14870.45L150.99 14870.45L150.99 14963.9L57.54 14963.9z" stroke="rgba(201, 157, 19, 1)"></path><path d="M942.16 127.51 a20.4 20.4 0 1 0 40.8 0 a20.4 20.4 0 1 0 -40.8 0z" stroke="rgba(201, 157, 19, 1)"></path><path d="M12.85 6478.4L193.72 6478.4L193.72 6659.27L12.85 6659.27z" fill="rgba(201, 157, 19, 1)"></path><path d="M1520.1 4554.19L1572.59 4554.19L1572.59 4683.09L1520.1 4683.09z" fill="rgba(201, 157, 19, 1)"></path><path d="M123.38 9608.08a17.1 17.1 0 1 0 28.12-19.47z" stroke="rgba(201, 157, 19, 1)"></path><path d="M1874.48 13742.75L1951.58 13742.75L1951.58 13819.85L1874.48 13819.85z" stroke="rgba(201, 157, 19, 1)"></path><path d="M747.94 3610.66L818.22 3610.66L818.22 3707.66L747.94 3707.66z" fill="rgba(201, 157, 19, 1)"></path><path d="M600.26 7334.98L616.66 7334.98L616.66 7407.71L600.26 7407.71z" fill="rgba(201, 157, 19, 1)"></path><path d="M1337.18 3512.24L1402.59 3512.24L1402.59 3577.65L1337.18 3577.65z" fill="rgba(201, 157, 19, 1)"></path><path d="M314.73 12980.12L370.17 12980.12L370.17 13145.38L314.73 13145.38z" stroke="rgba(201, 157, 19, 1)"></path><path d="M574.63 4397.83L611.22 4397.83L611.22 4434.42L574.63 4434.42z" fill="rgba(201, 157, 19, 1)"></path><path d="M551.1 1428.69a151.25 151.25 0 1 0 63.3-295.8z" stroke="rgba(201, 157, 19, 1)"></path><path d="M1518.33 2302.5 a9.63 9.63 0 1 0 19.26 0 a9.63 9.63 0 1 0 -19.26 0z" stroke="rgba(201, 157, 19, 1)"></path><path d="M-121.75 2455.54 a145.46 145.46 0 1 0 290.92 0 a145.46 145.46 0 1 0 -290.92 0z" stroke="rgba(201, 157, 19, 1)"></path><path d="M47.98 2269.96L180.74 2269.96L180.74 2422.13L47.98 2422.13z" stroke="rgba(201, 157, 19, 1)"></path><path d="M1031.46 2572.94L1194.88 2572.94L1194.88 2736.36L1031.46 2736.36z" stroke="rgba(201, 157, 19, 1)"></path><path d="M1384.7 14696.34 a78.38 78.38 0 1 0 156.76 0 a78.38 78.38 0 1 0 -156.76 0z" fill="rgba(201, 157, 19, 1)"></path><path d="M1850.72 9461.29L1872.63 9461.29L1872.63 9463.91L1850.72 9463.91z" fill="rgba(201, 157, 19, 1)"></path><path d="M1.33 2242.64 a114.38 114.38 0 1 0 228.76 0 a114.38 114.38 0 1 0 -228.76 0z" stroke="rgba(201, 157, 19, 1)"></path><path d="M80.28 12145.19L82.38 12145.19L82.38 12147.29L80.28 12147.29z" fill="rgba(201, 157, 19, 1)"></path><path d="M467.19 10013.27L587.05 10013.27L587.05 10189.14L467.19 10189.14z" stroke="rgba(201, 157, 19, 1)"></path><path d="M-75.93 13277.77 a163.25 163.25 0 1 0 326.5 0 a163.25 163.25 0 1 0 -326.5 0z" fill="rgba(201, 157, 19, 1)"></path><path d="M1381.19 6589.06 a6.14 6.14 0 1 0 12.28 0 a6.14 6.14 0 1 0 -12.28 0z" stroke="rgba(201, 157, 19, 1)"></path><path d="M60.67 1430.61 a183.76 183.76 0 1 0 367.52 0 a183.76 183.76 0 1 0 -367.52 0z" fill="rgba(201, 157, 19, 1)"></path><path d="M917.8 2153.42L1047.59 2153.42L1047.59 2239.98L917.8 2239.98z" stroke="rgba(201, 157, 19, 1)"></path><path d="M1867.92 5077.36L1882.46 5077.36L1882.46 5224.95L1867.92 5224.95z" fill="rgba(201, 157, 19, 1)"></path><path d="M825 13522.69a110.77 110.77 0 1 0-219.46 30.26z" stroke="rgba(201, 157, 19, 1)"></path><path d="M1252.5 14454.51a171.88 171.88 0 1 0 283.48 194.45z" stroke="rgba(201, 157, 19, 1)"></path><path d="M1631.66 12836.26a101.43 101.43 0 1 0-100.37-176.29z" stroke="rgba(201, 157, 19, 1)"></path><path d="M1410.92 348.7L1567.54 348.7L1567.54 505.32L1410.92 505.32z" fill="rgba(201, 157, 19, 1)"></path><path d="M1298.36 2167.1a57.7 57.7 0 1 0-100.11-57.42z" stroke="rgba(201, 157, 19, 1)"></path><path d="M347.6 4167.35 a127.05 127.05 0 1 0 254.1 0 a127.05 127.05 0 1 0 -254.1 0z" fill="rgba(201, 157, 19, 1)"></path><path d="M1210.42 2680.65a44.36 44.36 0 1 0 86.28 20.7z" fill="rgba(201, 157, 19, 1)"></path><path d="M639.07 11438.78L655.9 11438.78L655.9 11455.61L639.07 11455.61z" stroke="rgba(201, 157, 19, 1)"></path><path d="M43.97 10180.27L98.54 10180.27L98.54 10234.84L43.97 10234.84z" fill="rgba(201, 157, 19, 1)"></path><path d="M999.9 3256.91 a51.01 51.01 0 1 0 102.02 0 a51.01 51.01 0 1 0 -102.02 0z" fill="rgba(201, 157, 19, 1)"></path><path d="M738.49 10340.4 a30.96 30.96 0 1 0 61.92 0 a30.96 30.96 0 1 0 -61.92 0z" fill="rgba(201, 157, 19, 1)"></path><path d="M1417.64 6247.87 a92.08 92.08 0 1 0 184.16 0 a92.08 92.08 0 1 0 -184.16 0z" stroke="rgba(201, 157, 19, 1)"></path><path d="M1127.76 7240.19a88.62 88.62 0 1 0-9.5 176.99z" fill="rgba(201, 157, 19, 1)"></path><path d="M545.57 12448.45 a98.91 98.91 0 1 0 197.82 0 a98.91 98.91 0 1 0 -197.82 0z" fill="rgba(201, 157, 19, 1)"></path><path d="M318.43 8687.12L329.42 8687.12L329.42 8773.52L318.43 8773.52z" stroke="rgba(201, 157, 19, 1)"></path><path d="M1212.73 6256.57a73.25 73.25 0 1 0-54.33-136.06z" stroke="rgba(201, 157, 19, 1)"></path><path d="M926.79 666.33a179.99 179.99 0 1 0 291.64-211.02z" stroke="rgba(201, 157, 19, 1)"></path><path d="M1420.31 9929.4a31.1 31.1 0 1 0 38.28-49.02z" stroke="rgba(201, 157, 19, 1)"></path><path d="M20.49 10072.27L98.67 10072.27L98.67 10174.81L20.49 10174.81z" stroke="rgba(201, 157, 19, 1)"></path><path d="M672.43 12928.29L701.75 12928.29L701.75 12957.61L672.43 12957.61z" fill="rgba(201, 157, 19, 1)"></path><path d="M140.74 3303.01L198.93 3303.01L198.93 3448.68L140.74 3448.68z" stroke="rgba(201, 157, 19, 1)"></path><path d="M776.69 2643.79L817.5 2643.79L817.5 2684.6L776.69 2684.6z" stroke="rgba(201, 157, 19, 1)"></path><path d="M212.89 4610.75L297.51 4610.75L297.51 4686.82L212.89 4686.82z" stroke="rgba(201, 157, 19, 1)"></path><path d="M840.92 3949.86L992.6 3949.86L992.6 4101.54L840.92 4101.54z" stroke="rgba(201, 157, 19, 1)"></path><path d="M1418.73 9394.11 a10.97 10.97 0 1 0 21.94 0 a10.97 10.97 0 1 0 -21.94 0z" stroke="rgba(201, 157, 19, 1)"></path><path d="M1405.18 508.01L1489.81 508.01L1489.81 592.64L1405.18 592.64z" stroke="rgba(201, 157, 19, 1)"></path><path d="M1394.68 11554.25 a24.38 24.38 0 1 0 48.76 0 a24.38 24.38 0 1 0 -48.76 0z" fill="rgba(201, 157, 19, 1)"></path><path d="M937.11 10880.51a64.84 64.84 0 1 0 128.22-19.44z" stroke="rgba(201, 157, 19, 1)"></path></g><defs><mask id="SvgjsMask1003"><rect width="1920" height="15000" fill="#ffffff"></rect></mask></defs></svg>