<svg xmlns="http://www.w3.org/2000/svg" version="1.1" xmlns:xlink="http://www.w3.org/1999/xlink" xmlns:svgjs="http://svgjs.com/svgjs" width="1920" height="15000" preserveAspectRatio="none" viewBox="0 0 1920 15000"><g mask="url(&quot;#SvgjsMask1012&quot;)" fill="none"><rect width="1920" height="15000" x="0" y="0" fill="url(#SvgjsLinearGradient1013)"></rect><path d="M1293.2 5798.65L1388.37 5798.65L1388.37 5867.52L1293.2 5867.52z" stroke="rgba(158, 0, 86, 1)"></path><path d="M67.61 568.29a59.56 59.56 0 1 0 118.96 6.3z" fill="rgba(73, 14, 147, 1)"></path><path d="M1049.42 13099.11 a177.77 177.77 0 1 0 355.54 0 a177.77 177.77 0 1 0 -355.54 0z" stroke="rgba(73, 14, 147, 1)"></path><path d="M743.63 14545.82 a152.02 152.02 0 1 0 304.04 0 a152.02 152.02 0 1 0 -304.04 0z" stroke="rgba(158, 0, 86, 1)"></path><path d="M763.89 13759.7L795.66 13759.7L795.66 13931.06L763.89 13931.06z" fill="rgba(0, 67, 96, 1)"></path><path d="M373 6511.08L403.06 6511.08L403.06 6541.14L373 6541.14z" stroke="rgba(73, 14, 147, 1)"></path><path d="M1309.65 14284.39L1312.84 14284.39L1312.84 14287.58L1309.65 14287.58z" stroke="rgba(73, 14, 147, 1)"></path><path d="M775.5 8102.46a162.33 162.33 0 1 0-283.95 157.39z" stroke="rgba(73, 14, 147, 1)"></path><path d="M241.92 9361.48L422.93 9361.48L422.93 9506.3L241.92 9506.3z" fill="rgba(158, 0, 86, 1)"></path><path d="M466.11 12950.22a140.86 140.86 0 1 0-97.53 264.3z" fill="rgba(73, 14, 147, 1)"></path><path d="M1142.77 3098.22L1199.93 3098.22L1199.93 3266.84L1142.77 3266.84z" fill="rgba(158, 0, 86, 1)"></path><path d="M504.84 7059.64a154.13 154.13 0 1 0-243.28-189.3z" stroke="rgba(158, 0, 86, 1)"></path><path d="M1147.61 12047.65L1248.95 12047.65L1248.95 12191.76L1147.61 12191.76z" stroke="rgba(0, 67, 96, 1)"></path><path d="M1118.38 5287.41 a105.88 105.88 0 1 0 211.76 0 a105.88 105.88 0 1 0 -211.76 0z" fill="rgba(0, 67, 96, 1)"></path><path d="M-122.93 11480.9 a129.49 129.49 0 1 0 258.98 0 a129.49 129.49 0 1 0 -258.98 0z" fill="rgba(0, 67, 96, 1)"></path><path d="M915 14020.18a37.19 37.19 0 1 0 41.01 62.06z" stroke="rgba(73, 14, 147, 1)"></path><path d="M984.8 7102.54L1163.89 7102.54L1163.89 7287.17L984.8 7287.17z" fill="rgba(158, 0, 86, 1)"></path><path d="M1452.13 14467.69a12.35 12.35 0 1 0 0.72-24.69z" fill="rgba(158, 0, 86, 1)"></path><path d="M750.81 2029.35L876.61 2029.35L876.61 2175.53L750.81 2175.53z" fill="rgba(0, 67, 96, 1)"></path><path d="M632.42 1737.69a45.09 45.09 0 1 0 6.45 89.95z" stroke="rgba(73, 14, 147, 1)"></path><path d="M650.13 2764.36L819.76 2764.36L819.76 2933.99L650.13 2933.99z" fill="rgba(73, 14, 147, 1)"></path><path d="M1381.21 14816.07L1452.09 14816.07L1452.09 14886.95L1381.21 14886.95z" fill="rgba(73, 14, 147, 1)"></path><path d="M1339.87 10648.12L1494.36 10648.12L1494.36 10802.61L1339.87 10802.61z" fill="rgba(158, 0, 86, 1)"></path><path d="M1371.59 3429.1L1484.91 3429.1L1484.91 3542.42L1371.59 3542.42z" stroke="rgba(0, 67, 96, 1)"></path><path d="M1801 10680.12L1873.06 10680.12L1873.06 10845.84L1801 10845.84z" fill="rgba(0, 67, 96, 1)"></path><path d="M230.23 13440.81 a170.1 170.1 0 1 0 340.2 0 a170.1 170.1 0 1 0 -340.2 0z" fill="rgba(73, 14, 147, 1)"></path><path d="M1491.27 5925.27 a107.26 107.26 0 1 0 214.52 0 a107.26 107.26 0 1 0 -214.52 0z" stroke="rgba(0, 67, 96, 1)"></path><path d="M1868.61 4124.36L2058.28 4124.36L2058.28 4314.03L1868.61 4314.03z" fill="rgba(73, 14, 147, 1)"></path><path d="M1214.68 14053.17L1276.49 14053.17L1276.49 14114.98L1214.68 14114.98z" stroke="rgba(158, 0, 86, 1)"></path><path d="M807.76 1261.58a162.57 162.57 0 1 0-139.67-293.61z" stroke="rgba(0, 67, 96, 1)"></path><path d="M1184.52 2750.44L1221.4 2750.44L1221.4 2778.41L1184.52 2778.41z" stroke="rgba(0, 67, 96, 1)"></path><path d="M1261.33 4693.99L1384.51 4693.99L1384.51 4817.17L1261.33 4817.17z" fill="rgba(73, 14, 147, 1)"></path><path d="M835.96 3996.36L999.05 3996.36L999.05 4159.45L835.96 4159.45z" fill="rgba(0, 67, 96, 1)"></path><path d="M756.95 169.25L910.18 169.25L910.18 233.57L756.95 233.57z" stroke="rgba(73, 14, 147, 1)"></path><path d="M831.31 5384.11L864.6 5384.11L864.6 5481.83L831.31 5481.83z" fill="rgba(158, 0, 86, 1)"></path><path d="M670.43 11679.91L838.52 11679.91L838.52 11848L670.43 11848z" fill="rgba(158, 0, 86, 1)"></path><path d="M368.48 13178.89a134.27 134.27 0 1 0-155.68 218.8z" stroke="rgba(0, 67, 96, 1)"></path><path d="M169.06 5156.47 a30.8 30.8 0 1 0 61.6 0 a30.8 30.8 0 1 0 -61.6 0z" stroke="rgba(0, 67, 96, 1)"></path><path d="M667.57 6852.58a20.18 20.18 0 1 0 34.65 20.7z" fill="rgba(158, 0, 86, 1)"></path><path d="M1651.75 6590.4a111.26 111.26 0 1 0 21.29 221.5z" stroke="rgba(73, 14, 147, 1)"></path><path d="M357.87 3061.5a83.21 83.21 0 1 0-98.09-134.44z" fill="rgba(158, 0, 86, 1)"></path><path d="M70.02 8964.65L224.47 8964.65L224.47 8984.29L70.02 8984.29z" stroke="rgba(0, 67, 96, 1)"></path><path d="M373.26 7810.53L520.08 7810.53L520.08 7957.35L373.26 7957.35z" fill="rgba(158, 0, 86, 1)"></path><path d="M1069.85 1989.93a146.39 146.39 0 1 0-166.54-240.8z" stroke="rgba(73, 14, 147, 1)"></path><path d="M173.77 3469.27a54.71 54.71 0 1 0-51.32-96.64z" fill="rgba(0, 67, 96, 1)"></path><path d="M523.3 11434.51L692.03 11434.51L692.03 11600.93L523.3 11600.93z" stroke="rgba(158, 0, 86, 1)"></path><path d="M742.59 4744.87 a139.62 139.62 0 1 0 279.24 0 a139.62 139.62 0 1 0 -279.24 0z" fill="rgba(0, 67, 96, 1)"></path><path d="M767.15 6217.72L918.48 6217.72L918.48 6376.27L767.15 6376.27z" stroke="rgba(73, 14, 147, 1)"></path><path d="M1626.47 1797.33 a182.25 182.25 0 1 0 364.5 0 a182.25 182.25 0 1 0 -364.5 0z" fill="rgba(73, 14, 147, 1)"></path><path d="M1442.93 10947.04L1597.15 10947.04L1597.15 11082.07L1442.93 11082.07z" fill="rgba(158, 0, 86, 1)"></path><path d="M890.58 4285.26a126.61 126.61 0 1 0-40.19-250.01z" stroke="rgba(0, 67, 96, 1)"></path><path d="M1617.3 8991.74L1775.67 8991.74L1775.67 9146.12L1617.3 9146.12z" fill="rgba(158, 0, 86, 1)"></path><path d="M998.54 3580.33L1188.1 3580.33L1188.1 3662.73L998.54 3662.73z" fill="rgba(73, 14, 147, 1)"></path><path d="M376.24 3898.57L480.66 3898.57L480.66 4002.99L376.24 4002.99z" fill="rgba(0, 67, 96, 1)"></path><path d="M1379.77 2828.11 a141.49 141.49 0 1 0 282.98 0 a141.49 141.49 0 1 0 -282.98 0z" stroke="rgba(158, 0, 86, 1)"></path><path d="M550.88 12984.46L737.56 12984.46L737.56 13112.67L550.88 13112.67z" stroke="rgba(0, 67, 96, 1)"></path><path d="M1436.03 11909.85L1521.59 11909.85L1521.59 11995.41L1436.03 11995.41z" fill="rgba(0, 67, 96, 1)"></path><path d="M1242.13 8726.63L1293.08 8726.63L1293.08 8777.58L1242.13 8777.58z" stroke="rgba(0, 67, 96, 1)"></path><path d="M91.63 6257.74 a187.37 187.37 0 1 0 374.74 0 a187.37 187.37 0 1 0 -374.74 0z" fill="rgba(73, 14, 147, 1)"></path><path d="M1573.76 14230.86a175.26 175.26 0 1 0-330.56 116.59z" stroke="rgba(158, 0, 86, 1)"></path><path d="M942.71 3248.21a93.61 93.61 0 1 0-29.59 184.87z" stroke="rgba(158, 0, 86, 1)"></path><path d="M53.62 8318.95L66.17 8318.95L66.17 8362.79L53.62 8362.79z" stroke="rgba(158, 0, 86, 1)"></path><path d="M254.63 9966.04 a174.37 174.37 0 1 0 348.74 0 a174.37 174.37 0 1 0 -348.74 0z" fill="rgba(73, 14, 147, 1)"></path><path d="M812.36 2680.04a133.6 133.6 0 1 0-246.31 103.58z" stroke="rgba(158, 0, 86, 1)"></path><path d="M182.31 14420.38a144.26 144.26 0 1 0 161.9 238.82z" stroke="rgba(0, 67, 96, 1)"></path><path d="M275.73 3622.23 a50.57 50.57 0 1 0 101.14 0 a50.57 50.57 0 1 0 -101.14 0z" fill="rgba(158, 0, 86, 1)"></path><path d="M506.58 2445.3L668.88 2445.3L668.88 2607.6L506.58 2607.6z" fill="rgba(158, 0, 86, 1)"></path><path d="M1589.51 4745.86L1631.47 4745.86L1631.47 4787.82L1589.51 4787.82z" fill="rgba(0, 67, 96, 1)"></path><path d="M1160 10094.46L1316.59 10094.46L1316.59 10269.14L1160 10269.14z" stroke="rgba(0, 67, 96, 1)"></path><path d="M1068.64-119.02a140.02 140.02 0 1 0-79.74 268.45z" stroke="rgba(158, 0, 86, 1)"></path><path d="M788.19 4671.41L879.61 4671.41L879.61 4781.59L788.19 4781.59z" fill="rgba(158, 0, 86, 1)"></path><path d="M473.97 191.05a67.87 67.87 0 1 0 126.04-50.38z" stroke="rgba(0, 67, 96, 1)"></path><path d="M720.56 7358.66a6.6 6.6 0 1 0 13.04-2z" fill="rgba(73, 14, 147, 1)"></path><path d="M1362.36 11110.58L1418.32 11110.58L1418.32 11166.54L1362.36 11166.54z" stroke="rgba(0, 67, 96, 1)"></path><path d="M1869.13 7885.42L1939.07 7885.42L1939.07 7955.36L1869.13 7955.36z" stroke="rgba(158, 0, 86, 1)"></path><path d="M879.09 1458.74L891.75 1458.74L891.75 1543.11L879.09 1543.11z" fill="rgba(158, 0, 86, 1)"></path><path d="M688.14 1036.15L700.15 1036.15L700.15 1104.31L688.14 1104.31z" stroke="rgba(0, 67, 96, 1)"></path><path d="M900.22 4376.92L1088.34 4376.92L1088.34 4565.04L900.22 4565.04z" fill="rgba(0, 67, 96, 1)"></path><path d="M503.76 5074.06L568.13 5074.06L568.13 5127.15L503.76 5127.15z" stroke="rgba(73, 14, 147, 1)"></path><path d="M1874.02 12436.46L2037.12 12436.46L2037.12 12599.56L1874.02 12599.56z" stroke="rgba(73, 14, 147, 1)"></path><path d="M1743.97 14418.34a69.74 69.74 0 1 0 11.01 139.04z" fill="rgba(158, 0, 86, 1)"></path><path d="M622.96 11235.29a104.93 104.93 0 1 0-118.6-173.13z" fill="rgba(158, 0, 86, 1)"></path><path d="M1170.26 14086.16L1210.76 14086.16L1210.76 14126.66L1170.26 14126.66z" fill="rgba(73, 14, 147, 1)"></path><path d="M1395.85 4987.52a105.34 105.34 0 1 0 151.5 146.4z" fill="rgba(158, 0, 86, 1)"></path><path d="M820.68 3441.51 a109.37 109.37 0 1 0 218.74 0 a109.37 109.37 0 1 0 -218.74 0z" fill="rgba(158, 0, 86, 1)"></path><path d="M1324.26-52.31a180.29 180.29 0 1 0 32.17 359.14z" stroke="rgba(73, 14, 147, 1)"></path><path d="M840.18 6729.13L913.27 6729.13L913.27 6802.22L840.18 6802.22z" stroke="rgba(73, 14, 147, 1)"></path><path d="M996.25 8048.37a2.48 2.48 0 1 0 4.62-1.8z" stroke="rgba(0, 67, 96, 1)"></path><path d="M390.93 9621.42L411.32 9621.42L411.32 9641.81L390.93 9641.81z" stroke="rgba(158, 0, 86, 1)"></path><path d="M1148.57 7749.75 a28.94 28.94 0 1 0 57.88 0 a28.94 28.94 0 1 0 -57.88 0z" fill="rgba(73, 14, 147, 1)"></path><path d="M181.95 14715a95.96 95.96 0 1 0-168.55 91.79z" stroke="rgba(73, 14, 147, 1)"></path><path d="M431.35 7919.54 a97.76 97.76 0 1 0 195.52 0 a97.76 97.76 0 1 0 -195.52 0z" stroke="rgba(73, 14, 147, 1)"></path><path d="M493.23 5258.93a86.56 86.56 0 1 0 139.21 102.91z" stroke="rgba(158, 0, 86, 1)"></path><path d="M1316.17 11988.53a52.34 52.34 0 1 0 82.13-64.91z" fill="rgba(0, 67, 96, 1)"></path><path d="M99.05 2015.43L206.23 2015.43L206.23 2074.95L99.05 2074.95z" stroke="rgba(0, 67, 96, 1)"></path><path d="M1435.93 357.69 a38.55 38.55 0 1 0 77.1 0 a38.55 38.55 0 1 0 -77.1 0z" stroke="rgba(158, 0, 86, 1)"></path><path d="M1390.49 9217.03L1450.2 9217.03L1450.2 9325.16L1390.49 9325.16z" stroke="rgba(158, 0, 86, 1)"></path><path d="M225.48 3468.26L397.62 3468.26L397.62 3640.4L225.48 3640.4z" fill="rgba(158, 0, 86, 1)"></path></g><defs><mask id="SvgjsMask1012"><rect width="1920" height="15000" fill="#ffffff"></rect></mask><linearGradient x1="100%" y1="50%" x2="0%" y2="50%" gradientUnits="userSpaceOnUse" id="SvgjsLinearGradient1013"><stop stop-color="rgba(73, 14, 147, 1)" offset="0"></stop><stop stop-color="rgba(158, 0, 86, 1)" offset="1"></stop></linearGradient></defs></svg>