<svg xmlns="http://www.w3.org/2000/svg" version="1.1" xmlns:xlink="http://www.w3.org/1999/xlink" xmlns:svgjs="http://svgjs.com/svgjs" width="1920" height="15000" preserveAspectRatio="none" viewBox="0 0 1920 15000"><g mask="url(&quot;#SvgjsMask1619&quot;)" fill="none"><rect width="1920" height="15000" x="0" y="0" fill="url(#SvgjsLinearGradient1620)"></rect><path d="M 0,242 C 96,428.8 288,1111.8 480,1176 C 672,1240.2 768,480.2 960,563 C 1152,645.8 1248,1644.2 1440,1590 C 1632,1535.8 1824,551.6 1920,292L1920 15000L0 15000z" fill="rgba(158, 0, 86, 1)"></path><path d="M 0,2901 C 128,2869 384,2746 640,2741 C 896,2736 1024,2929 1280,2876 C 1536,2823 1792,2556 1920,2476L1920 15000L0 15000z" fill="rgba(0, 67, 96, 1)"></path><path d="M 0,4809 C 128,4655.8 384,3918.6 640,4043 C 896,4167.4 1024,5426.4 1280,5431 C 1536,5435.6 1792,4339 1920,4066L1920 15000L0 15000z" fill="rgba(158, 0, 86, 1)"></path><path d="M 0,5811 C 96,5971.2 288,6636 480,6612 C 672,6588 768,5538.2 960,5691 C 1152,5843.8 1248,7229 1440,7376 C 1632,7523 1824,6616 1920,6426L1920 15000L0 15000z" fill="rgba(0, 67, 96, 1)"></path><path d="M 0,8819 C 96,8631.2 288,7861.2 480,7880 C 672,7898.8 768,8826.6 960,8913 C 1152,8999.4 1248,8310.8 1440,8312 C 1632,8313.2 1824,8797.6 1920,8919L1920 15000L0 15000z" fill="rgba(158, 0, 86, 1)"></path><path d="M 0,10937 C 96,10802.4 288,10387.2 480,10264 C 672,10140.8 768,10429.2 960,10321 C 1152,10212.8 1248,9595.2 1440,9723 C 1632,9850.8 1824,10712.6 1920,10960L1920 15000L0 15000z" fill="rgba(0, 67, 96, 1)"></path><path d="M 0,13117 C 128,12766.4 384,11438 640,11364 C 896,11290 1024,12674 1280,12747 C 1536,12820 1792,11932.6 1920,11729L1920 15000L0 15000z" fill="rgba(158, 0, 86, 1)"></path><path d="M 0,13761 C 128,13861.6 384,14205.4 640,14264 C 896,14322.6 1024,13960 1280,14054 C 1536,14148 1792,14598 1920,14734L1920 15000L0 15000z" fill="rgba(0, 67, 96, 1)"></path></g><defs><mask id="SvgjsMask1619"><rect width="1920" height="15000" fill="#ffffff"></rect></mask><linearGradient x1="50%" y1="0%" x2="50%" y2="100%" gradientUnits="userSpaceOnUse" id="SvgjsLinearGradient1620"><stop stop-color="rgba(73, 14, 147, 1)" offset="0"></stop><stop stop-color="rgba(158, 0, 42, 0.98)" offset="1"></stop></linearGradient></defs></svg>